<svg width="18" height="24" viewBox="0 0 18 24" fill="none" xmlns="http://www.w3.org/2000/svg">
<path d="M17.7508 10.1996C16.031 10.2037 14.3535 9.6674 12.9551 8.66641V15.6477C12.9546 16.9407 12.5594 18.2027 11.8223 19.265C11.0852 20.3274 10.0413 21.1393 8.83031 21.5924C7.61928 22.0455 6.29879 22.118 5.04542 21.8003C3.79205 21.4826 2.66554 20.7899 1.81651 19.8147C0.96749 18.8395 0.436423 17.6283 0.294325 16.3431C0.152227 15.058 0.405871 13.76 1.02134 12.6229C1.63681 11.4858 2.58477 10.5637 3.73846 9.97983C4.89216 9.39601 6.19659 9.17832 7.47735 9.35586V12.8672C6.89127 12.6828 6.26193 12.6884 5.6792 12.8831C5.09647 13.0777 4.59015 13.4515 4.23254 13.9511C3.87493 14.4507 3.68433 15.0505 3.68795 15.6649C3.69157 16.2793 3.88922 16.8768 4.25269 17.3721C4.61616 17.8675 5.12685 18.2353 5.71183 18.4231C6.29682 18.6109 6.92618 18.609 7.51004 18.4178C8.09391 18.2265 8.60241 17.8557 8.96295 17.3582C9.32348 16.8607 9.5176 16.262 9.51758 15.6477V2H12.9551C12.9527 2.29029 12.977 2.58018 13.0277 2.86602C13.1472 3.50409 13.3956 4.1111 13.7576 4.6499C14.1197 5.1887 14.5879 5.64796 15.1336 5.99961C15.9099 6.51293 16.8201 6.78652 17.7508 6.78633V10.1996Z" fill="black"/>
</svg>
